<?xml version="1.0" encoding="UTF-8"?><svg xmlns="http://www.w3.org/2000/svg" width="5.75in" height="1.668in" xmlns:xlink="http://www.w3.org/1999/xlink" viewBox="0 0 414 120.061"><defs><clipPath id="b"><path d="M305.427,56.685c.714,0,1.298-.584,1.298-1.298v-3.721s.137-.931-.9-1.562c-1.556-.946-1.388-2.739-1.388-2.739,0-.714-.584-1.298-1.298-1.298h-32.924c-.714,0-1.298.584-1.298,1.298,0,0,.168,1.792-1.388,2.739-1.037.631-.9,1.562-.9,1.562v3.721c0,.714.584,1.298,1.298,1.298h37.499Z" fill="#1a1a1a"/></clipPath></defs><g id="a"><rect x="262.555" y="45.008" width="63.978" height="12.319" fill="#ececec"/><rect x="4.75" y="35.939" width="403.2" height="46.668" fill="none" stroke="#ccc" stroke-linecap="round" stroke-linejoin="round" stroke-width="1.645"/><polygon points="8.655 39.939 404.172 39.939 403.909 78.21 8.392 78.21 8.655 39.939" fill="#ccc" fill-rule="evenodd"/><path d="M17.351,77.729h29.329c2.007,0,3.653-1.647,3.653-3.653v-29.329c0-2.058-1.647-3.705-3.653-3.705h-29.329c-2.058,0-3.705,1.647-3.705,3.705v29.329c0,2.007,1.647,3.653,3.705,3.653Z" fill="#e5e5e4"/><path d="M49.767,56.273v-3.396c-1.955-5.197-6.02-9.313-11.217-11.217h-6.998c-.154,0-.309.154-.309.36,0,.051,0,.154.103.206,2.213,2.213,4.013,4.837,5.197,7.718,4.631,2.264,6.946,7.512,5.506,12.452,2.984-1.441,5.608-3.499,7.718-6.123M35.102,77.163h3.447c5.197-1.955,9.262-6.02,11.217-11.217v-6.998c0-.154-.154-.309-.36-.309-.103,0-.206,0-.257.103-2.213,2.213-4.837,4.013-7.718,5.197-2.264,4.631-7.512,6.946-12.452,5.506,1.441,2.984,3.55,5.608,6.123,7.718ZM14.264,62.499v3.447c1.904,5.197,6.02,9.262,11.217,11.217h6.946c.206,0,.36-.154.36-.36,0-.103-.051-.206-.103-.257-2.264-2.213-4.065-4.837-5.248-7.718-4.631-2.264-6.946-7.512-5.454-12.452-3.036,1.441-5.66,3.55-7.718,6.123ZM28.876,41.66h-3.396c-5.197,1.904-9.313,6.02-11.217,11.217v6.946c0,.206.154.36.309.36.103,0,.206-.051.257-.103,2.213-2.264,4.837-4.065,7.718-5.248,2.264-4.631,7.512-6.946,12.452-5.454-1.441-3.036-3.499-5.66-6.123-7.718Z" fill="#fff" fill-rule="evenodd"/><path d="M20.129,70.938c-.772-.72-1.801-1.081-2.83-1.081-1.286-1.801-2.213-3.808-2.778-5.917v-9.107c.566-2.11,1.492-4.116,2.778-5.917h4.271c.412,0,.823.103,1.183.257l4.476,1.955c-3.962,2.264-5.711,6.998-4.271,11.32l-2.47,5.66c-.257.515-.36,1.132-.36,1.698v1.132M43.746,77.729h33.754v-1.749c0-.206.154-.36.36-.36h1.029v-7.461h-5.197v-15.127h5.197v-10.805h-11.32v2.727h-.566v-2.727h-8.233v2.727h-.566v-2.727h-7.872v-.206c0-.515-.412-.978-.926-.978h-5.66c-.72,0-1.286.617-1.286,1.286v6.638c0,.412-.051.823-.206,1.183l-2.007,4.476c-2.264-3.962-6.998-5.711-11.32-4.271l-5.608-2.47c-.566-.257-1.132-.36-1.749-.36h-1.132c.72-.772,1.081-1.801,1.081-2.83v-2.367c0-.669-.566-1.286-1.286-1.286h-5.66c-.515,0-.926.463-.926.978v1.029h-.617v34.68h7.204c.72,0,1.286-.566,1.286-1.286v-6.638c0-.412.103-.772.257-1.132l1.955-4.528c2.264,3.962,6.998,5.763,11.32,4.271l5.66,2.47c.515.257,1.132.36,1.698.36h1.132c-.669.772-1.081,1.801-1.081,2.83v2.367c0,.72.566,1.286,1.286,1.286ZM43.849,47.835c.772.72,1.801,1.081,2.83,1.081,1.286,1.801,2.213,3.808,2.778,5.917v9.107c-.566,2.11-1.492,4.116-2.778,5.917h-4.271c-.412,0-.772-.051-1.132-.257l-4.528-1.955c3.962-2.264,5.763-6.998,4.271-11.32l2.47-5.608c.257-.566.36-1.132.36-1.749v-1.132Z" fill="#e5e5e4" fill-rule="evenodd"/><path d="M50.693,45.262v25.058c0,.823.617,1.492,1.441,1.492h18.215c.772,0,1.441-.669,1.441-1.492v-25.058c0-.823-.669-1.492-1.441-1.492h-18.215c-.823,0-1.441.669-1.441,1.492" fill="#ccc" fill-rule="evenodd"/><path d="M52.802,52.105v11.32c0,.669.257,1.235.72,1.698l4.579,4.374c.412.412.978.617,1.595.617h7.667c1.286,0,2.315-1.029,2.315-2.315v-20.015c0-1.286-1.029-2.367-2.315-2.367h-7.667c-.617,0-1.183.257-1.595.669l-4.579,4.374c-.463.412-.72,1.029-.72,1.647Z" fill="#fff"/><path d="M61.395,65.175h4.631v-1.441h-4.631v1.441ZM56.404,58.486h4.682v-1.389h-4.682v1.389ZM61.395,51.848h4.631v-1.389h-4.631v1.389Z" fill="#ccc" fill-rule="evenodd"/><path d="M17.145,77.729h29.689c1.955,0,3.499-1.595,3.499-3.499v-4.991c0-.206-.154-.36-.36-.36h-2.213c-.206,0-.36.154-.36.36v4.991c0,.309-.257.566-.566.566h-29.689c-.309,0-.566-.257-.566-.566v-4.991c0-.206-.154-.36-.36-.36h-2.213c-.206,0-.36.154-.36.36v4.991c0,1.904,1.595,3.499,3.499,3.499Z" fill="#ccc"/><path d="M68.187,77.266h1.852c.515,0,.978-.412.978-.926v-14.458c0-.515-.463-.926-.978-.926h-1.852c-.515,0-.926.412-.926.926v14.458c0,.515.412.926.926.926" fill="#ccc" fill-rule="evenodd"/><rect x="71.017" y="62.087" width="7.872" height="14.047" fill="#e9e8e7"/><rect x="53.986" y="71.967" width="11.68" height="5.557" fill="#ccc"/><path d="M338.743,77.729h29.329c2.007,0,3.653-1.647,3.653-3.653v-29.329c0-2.058-1.647-3.705-3.653-3.705h-29.329c-2.058,0-3.705,1.647-3.705,3.705v29.329c0,2.007,1.647,3.653,3.705,3.653Z" fill="#e5e5e4"/><path d="M371.158,56.273v-3.396c-1.955-5.197-6.02-9.313-11.217-11.217h-6.998c-.154,0-.309.154-.309.36,0,.051,0,.154.103.206,2.213,2.213,4.013,4.837,5.197,7.718,4.631,2.264,6.946,7.512,5.506,12.452,2.984-1.441,5.608-3.499,7.718-6.123M356.494,77.163h3.447c5.197-1.955,9.262-6.02,11.217-11.217v-6.998c0-.154-.154-.309-.36-.309-.103,0-.206,0-.257.103-2.213,2.213-4.837,4.013-7.718,5.197-2.264,4.631-7.512,6.946-12.452,5.506,1.441,2.984,3.55,5.608,6.123,7.718ZM335.655,62.499v3.447c1.904,5.197,6.02,9.262,11.217,11.217h6.946c.206,0,.36-.154.36-.36,0-.103-.051-.206-.103-.257-2.264-2.213-4.065-4.837-5.248-7.718-4.631-2.264-6.946-7.512-5.454-12.452-3.036,1.441-5.66,3.55-7.718,6.123ZM350.268,41.66h-3.396c-5.197,1.904-9.313,6.02-11.217,11.217v6.946c0,.206.154.36.309.36.103,0,.206-.051.257-.103,2.213-2.264,4.837-4.065,7.718-5.248,2.264-4.631,7.512-6.946,12.452-5.454-1.441-3.036-3.499-5.66-6.123-7.718Z" fill="#fff" fill-rule="evenodd"/><path d="M341.521,70.938c-.772-.72-1.801-1.081-2.83-1.081-1.286-1.801-2.213-3.808-2.778-5.917v-9.107c.566-2.11,1.492-4.116,2.778-5.917h4.271c.412,0,.823.103,1.183.257l4.476,1.955c-3.962,2.264-5.711,6.998-4.271,11.32l-2.47,5.66c-.257.515-.36,1.132-.36,1.698v1.132M365.138,77.729h33.754v-1.749c0-.206.154-.36.36-.36h1.029v-7.461h-5.197v-15.127h5.197v-10.805h-11.32v2.727h-.566v-2.727h-8.233v2.727h-.566v-2.727h-7.872v-.206c0-.515-.412-.978-.926-.978h-5.66c-.72,0-1.286.617-1.286,1.286v6.638c0,.412-.051.823-.206,1.183l-2.007,4.476c-2.264-3.962-6.998-5.711-11.32-4.271l-5.608-2.47c-.566-.257-1.132-.36-1.749-.36h-1.132c.72-.772,1.081-1.801,1.081-2.83v-2.367c0-.669-.566-1.286-1.286-1.286h-5.66c-.515,0-.926.463-.926.978v1.029h-.617v34.68h7.204c.72,0,1.286-.566,1.286-1.286v-6.638c0-.412.103-.772.257-1.132l1.955-4.528c2.264,3.962,6.998,5.763,11.32,4.271l5.66,2.47c.515.257,1.132.36,1.698.36h1.132c-.669.772-1.081,1.801-1.081,2.83v2.367c0,.72.566,1.286,1.286,1.286ZM365.241,47.835c.772.72,1.801,1.081,2.83,1.081,1.286,1.801,2.213,3.808,2.778,5.917v9.107c-.566,2.11-1.492,4.116-2.778,5.917h-4.271c-.412,0-.772-.051-1.132-.257l-4.528-1.955c3.962-2.264,5.763-6.998,4.271-11.32l2.47-5.608c.257-.566.36-1.132.36-1.749v-1.132Z" fill="#e5e5e4" fill-rule="evenodd"/><path d="M372.085,45.262v25.058c0,.823.617,1.492,1.441,1.492h18.215c.772,0,1.441-.669,1.441-1.492v-25.058c0-.823-.669-1.492-1.441-1.492h-18.215c-.823,0-1.441.669-1.441,1.492" fill="#ccc" fill-rule="evenodd"/><path d="M374.194,52.105v11.32c0,.669.257,1.235.72,1.698l4.579,4.374c.412.412.978.617,1.595.617h7.667c1.286,0,2.315-1.029,2.315-2.315v-20.015c0-1.286-1.029-2.367-2.315-2.367h-7.667c-.617,0-1.183.257-1.595.669l-4.579,4.374c-.463.412-.72,1.029-.72,1.647Z" fill="#fff"/><path d="M382.787,65.175h4.631v-1.441h-4.631v1.441ZM377.796,58.486h4.682v-1.389h-4.682v1.389ZM382.787,51.848h4.631v-1.389h-4.631v1.389Z" fill="#ccc" fill-rule="evenodd"/><path d="M338.537,77.729h29.689c1.955,0,3.499-1.595,3.499-3.499v-4.991c0-.206-.154-.36-.36-.36h-2.213c-.206,0-.36.154-.36.36v4.991c0,.309-.257.566-.566.566h-29.689c-.309,0-.566-.257-.566-.566v-4.991c0-.206-.154-.36-.36-.36h-2.213c-.206,0-.36.154-.36.36v4.991c0,1.904,1.595,3.499,3.499,3.499Z" fill="#ccc"/><path d="M389.579,77.266h1.852c.515,0,.978-.412.978-.926v-14.458c0-.515-.463-.926-.978-.926h-1.852c-.515,0-.926.412-.926.926v14.458c0,.515.412.926.926.926" fill="#ccc" fill-rule="evenodd"/><rect x="392.409" y="62.087" width="7.872" height="14.047" fill="#e9e8e7"/><rect x="375.378" y="71.967" width="11.68" height="5.557" fill="#ccc"/><rect x="95.948" y="45.008" width="63.978" height="12.319" fill="#ececec"/><path d="M160.602,74.488c.051.001.103.002.154.002h5.559c2.97,0,4.4-2.43,4.4-5.4v-.677c0-2.97-1.43-5.4-4.4-5.4h-5.53l-.012-2.043c-.293-.741-1.019-1.269-1.861-1.269h-68.287c-1.1,0-2,.9-2,2v11.753c0,1.1.9,2,2,2h68.287c.704,0,1.326-.369,1.683-.922l.007-.043Z" fill="#ececec" fill-rule="evenodd"/><path d="M92.768,73.239v-11.449c0-.56-.275-1.069-.611-1.069h-.031l-5.648.153c-.336,0-.611.458-.611,1.069v11.194c0,.56.275,1.018.611,1.018l5.648.153c.366,0,.641-.458.641-1.018v-.051Z" fill="#676767" fill-rule="evenodd"/><path d="M170.2,68.636h.051c0-.051.051-.102.051-.153v-.051c0-.051-.051-.102-.102-.102h-.051v-.153c.051,0,.102-.051.102-.153l-.051-.051c0-.051-.051-.102-.102-.102l-.051.051v-.204c.051,0,.102-.051.051-.102v-.102c0-.051-.051-.051-.102-.051h-.051c-.051-.051-.051-.102-.051-.153h.051s.051-.102,0-.153v-.051c-.051-.051-.102-.102-.153-.051h-.051c0-.051,0-.102-.051-.153h.051c.051-.051.051-.102,0-.153v-.051c-.051-.051-.102-.051-.153-.051l-.051.051c0-.051-.051-.102-.051-.153v-.051c.051,0,.051-.051,0-.102v-.051c-.051-.051-.102-.102-.153-.051h-.051s-.051-.051-.102-.102l.051-.051c.051,0,.051-.051,0-.102l-.051-.051c-.051-.051-.102-.051-.153-.051v.051c-.051-.051-.102-.102-.153-.102l.051-.051c.051-.051,0-.102,0-.153l-.051-.051h-.153l-.051.051q-.051-.051-.102-.102v-.051c.051-.051.051-.102,0-.102l-.051-.051c-.051-.051-.153-.051-.153,0l-.051.051-.102-.102v-.051c.051-.051,0-.102-.051-.102l-.051-.051c-.051-.051-.102,0-.153,0v.051c-.051,0-.102-.051-.153-.051v-.051c.051-.051,0-.102-.051-.102l-.051-.051c-.051,0-.102,0-.153.051v.051c-.051-.051-.102-.051-.153-.102.051-.051,0-.102-.051-.153h-.051c-.102-.051-.153,0-.153.051v.051c-.051-.051-.102-.051-.153-.051v-.051c0-.051-.051-.102-.102-.102h-.051c-.051-.051-.102,0-.153.051v.051c-.051,0-.102-.051-.153-.051v-.051c0-.051-.051-.051-.102-.102h-.051c-.051,0-.102.051-.102.102v.051h-.204v-.051c0-.051,0-.102-.102-.102h-.051c-.051,0-.102.051-.102.102v.051h-.153v-.051c0-.051-.051-.102-.153-.102h-.051c-.051.051-.102.051-.102.102v.051c-.051,0-.102.051-.153.051v-.051c0-.051-.051-.102-.102-.051h-.102c-.051,0-.102.051-.102.102l.051.051c-.051,0-.102,0-.153.051l-.051-.051c0-.051-.051-.102-.102-.051h-.051c-.102.051-.102.102-.102.153-.051.051-.102.051-.153.102v-.051c0-.051-.102-.051-.153-.051l-.051.051c-.051,0-.051.051-.051.102v.051c-.051,0-.102.051-.102.051l-.051-.051s-.102-.051-.153,0l-.051.051c-.051,0-.051.051-.051.102l.051.051c-.051.051-.102.051-.153.102v-.051c-.051-.051-.102-.051-.153,0l-.051.051c-.051,0-.102.051-.051.102l.051.051c-.051.051-.102.051-.153.102v-.051h-.153l-.051.051c-.051.051-.051.102-.051.153l.051.051c-.051,0-.051.051-.102.102l-.051-.051c-.051,0-.102,0-.153.051l-.051.051v.102l.051.051c-.051.051-.051.102-.102.102h-.051c0-.051-.102,0-.102.051l-.051.051c-.051.051-.051.102,0,.102l.051.051c-.051.051-.051.102-.102.153l-.051-.051c-.051,0-.102,0-.102.051l-.051.051c-.051.051,0,.102,0,.153h.051c0,.051-.051.102-.051.153h-.051c-.051-.051-.102,0-.102.051l-.051.051c0,.051,0,.153.051.153h.051c-.051.051-.051.102-.051.153h-.051c-.051,0-.102,0-.153.051v.102c0,.051,0,.102.051.102l.051.051c0,.051-.051.102-.051.153l-.051-.051c-.051,0-.102.051-.102.102v.051c-.051.102,0,.153.051.153h.051c0,.051-.051.102-.051.153h-.051c-.051,0-.051.051-.102.102v.051c0,.051.051.102.102.153h.051v.153h-.051c-.051,0-.102.051-.102.102v.051c0,.051.051.102.102.102h.051v.153l-.051.051c-.051,0-.102.051-.102.102v.051c.051.051.051.102.102.102h.051c0,.051.051.102.051.153h-.051c-.051,0-.102.102-.051.153v.051c0,.051.051.102.102.102h.051c0,.051.051.102.051.153h-.051c-.051,0-.051.051-.051.102v.102c.051.051.102.051.153.051h.051c0,.051,0,.102.051.153h-.051c-.051.051-.051.102-.051.153l.051.051c0,.051.051.102.102.051h.051c0,.051.051.102.051.153h-.051c0,.051-.051.102,0,.153l.051.051c0,.051.051.051.102.051l.051-.051c.051.051.051.102.102.153l-.051.051c-.051,0-.051.051,0,.102l.051.051c0,.051.102.102.102.051h.051c.051,0,.051.051.102.102l-.051.051v.102l.051.051c.051.051.102.051.153.051l.051-.051c.051.051.051.102.102.102l-.051.051c0,.051,0,.102.051.153l.051.051c.051,0,.102.051.153,0v-.051c.051.051.102.051.153.102l-.051.051c-.051.051,0,.102.051.102l.051.051c.051.051.102.051.153,0v-.051c.051.051.102.102.153.102l-.051.051c0,.051,0,.102.051.102l.051.051c.051.051.153.051.153,0l.051-.051s.051.051.102.051v.051c0,.051,0,.102.051.153h.051c.051.051.153,0,.153-.051.051,0,.102,0,.153.051v.051s0,.051.102.102h.051c.051.051.102,0,.102-.051l.051-.051c.051.051.102.051.153.051l-.051.051c0,.051.051.102.102.102l.102.051c.051,0,.102-.051.102-.102v-.051c.051.051.102.051.153.051v.051c0,.051.051.102.102.102h.051c.102,0,.153-.051.153-.102v-.051c.051,0,.102.051.153.051v.051s.051.051.102.051h.051c.102,0,.102-.051.102-.051v-.051c.102,0,.153-.051.204-.051v.051c0,.051.051.102.102.102h.051c.051,0,.102-.051.102-.102v-.051c.051,0,.102,0,.153-.051v.051c.051.051.102.102.153.102l.051-.051c.051,0,.102-.051.102-.102v-.051c.051,0,.102,0,.153-.051v.051c0,.051.051.102.153.051h.051c.051-.051.102-.102.051-.102v-.051c.051-.051.102-.051.153-.051.051.051.102.102.153.051h.051c.051-.051.102-.102.051-.153v-.051c.051,0,.102-.051.153-.051v.051c.051.051.102.051.153,0l.051-.051c.051,0,.102-.051.051-.102v-.051c.051,0,.051-.051.102-.102l.051.051c0,.051.102.051.153,0l.051-.051c.051,0,.051-.051,0-.102v-.051q.051-.051.102-.102l.051.051c0,.051.102,0,.153,0l.051-.051c0-.051.051-.102,0-.153l-.051-.051c.051,0,.102-.051.153-.102v.051c.051,0,.102,0,.153-.051l.051-.051c.051,0,.051-.102,0-.102l-.051-.051c.051-.051.102-.102.102-.102h.051c.051.051.102,0,.153-.051v-.051c.051-.051.051-.102,0-.102v-.051c0-.051.051-.102.051-.153l.051.051c.051,0,.102,0,.153-.051v-.051c.051-.051.051-.102,0-.153h-.051c.051-.051.051-.102.051-.153h.051c.051.051.102,0,.153-.051v-.051c.051-.051,0-.102,0-.153h-.051c0-.051,0-.102.051-.153h.051c.051,0,.102,0,.102-.051v-.102c.051-.051,0-.102-.051-.102v-.153h.051c.051,0,.102-.051.102-.102l.051-.051c0-.051-.051-.153-.102-.153v-.153h.051c.051,0,.102-.051.102-.102v-.051c0-.051-.051-.102-.051-.102l-.051-.051v-.153h.051c.051,0,.051-.051.051-.102v-.051c0-.051,0-.102-.051-.102h-.051v-.153Z" fill="#a7a6a6"/><path d="M168.623,68.941c0-1.476-1.221-2.646-2.646-2.646-1.476,0-2.646,1.17-2.646,2.646,0,1.425,1.17,2.595,2.646,2.595,1.425,0,2.646-1.17,2.646-2.595Z" fill="#ddd" fill-rule="evenodd"/><path d="M167.401,69.908l-.611-.661c-.204-.204-.204-.458,0-.661l.611-.661-.458-.458-.661.661c-.153.153-.458.153-.661,0l-.611-.661-.509.458.661.661c.153.204.153.458,0,.661l-.661.661.509.458.611-.661c.204-.153.509-.153.661,0l.661.661.458-.458Z" fill="#a2a2a1"/><rect x="110.055" y="63.415" width="16.551" height="7.966" fill="#1a1a1a"/><rect x="127.677" y="63.415" width="16.551" height="7.966" fill="#1a1a1a"/><path d="M321.347,74.488c.051.001.103.002.154.002h5.559c2.97,0,4.4-2.43,4.4-5.4v-.677c0-2.97-1.43-5.4-4.4-5.4h-5.53l-.012-2.043c-.293-.741-1.019-1.269-1.861-1.269h-68.287c-1.1,0-2,.9-2,2v11.753c0,1.1.9,2,2,2h68.287c.704,0,1.326-.369,1.683-.922l.007-.043Z" fill="#ececec" fill-rule="evenodd"/><path d="M253.514,73.239v-11.449c0-.56-.275-1.069-.611-1.069h-.031l-5.648.153c-.336,0-.611.458-.611,1.069v11.194c0,.56.275,1.018.611,1.018l5.648.153c.366,0,.641-.458.641-1.018v-.051Z" fill="#676767" fill-rule="evenodd"/><path d="M330.946,68.636h.051c0-.051.051-.102.051-.153v-.051c0-.051-.051-.102-.102-.102h-.051v-.153c.051,0,.102-.051.102-.153l-.051-.051c0-.051-.051-.102-.102-.102l-.051.051v-.204c.051,0,.102-.051.051-.102v-.102c0-.051-.051-.051-.102-.051h-.051c-.051-.051-.051-.102-.051-.153h.051s.051-.102,0-.153v-.051c-.051-.051-.102-.102-.153-.051h-.051c0-.051,0-.102-.051-.153h.051c.051-.051.051-.102,0-.153v-.051c-.051-.051-.102-.051-.153-.051l-.051.051c0-.051-.051-.102-.051-.153v-.051c.051,0,.051-.051,0-.102v-.051c-.051-.051-.102-.102-.153-.051h-.051s-.051-.051-.102-.102l.051-.051c.051,0,.051-.051,0-.102l-.051-.051c-.051-.051-.102-.051-.153-.051v.051c-.051-.051-.102-.102-.153-.102l.051-.051c.051-.051,0-.102,0-.153l-.051-.051h-.153l-.051.051q-.051-.051-.102-.102v-.051c.051-.051.051-.102,0-.102l-.051-.051c-.051-.051-.153-.051-.153,0l-.051.051-.102-.102v-.051c.051-.051,0-.102-.051-.102l-.051-.051c-.051-.051-.102,0-.153,0v.051c-.051,0-.102-.051-.153-.051v-.051c.051-.051,0-.102-.051-.102l-.051-.051c-.051,0-.102,0-.153.051v.051c-.051-.051-.102-.051-.153-.102.051-.051,0-.102-.051-.153h-.051c-.102-.051-.153,0-.153.051v.051c-.051-.051-.102-.051-.153-.051v-.051c0-.051-.051-.102-.102-.102h-.051c-.051-.051-.102,0-.153.051v.051c-.051,0-.102-.051-.153-.051v-.051c0-.051-.051-.051-.102-.102h-.051c-.051,0-.102.051-.102.102v.051h-.204v-.051c0-.051,0-.102-.102-.102h-.051c-.051,0-.102.051-.102.102v.051h-.153v-.051c0-.051-.051-.102-.153-.102h-.051c-.051.051-.102.051-.102.102v.051c-.051,0-.102.051-.153.051v-.051c0-.051-.051-.102-.102-.051h-.102c-.051,0-.102.051-.102.102l.051.051c-.051,0-.102,0-.153.051l-.051-.051c0-.051-.051-.102-.102-.051h-.051c-.102.051-.102.102-.102.153-.051.051-.102.051-.153.102v-.051c0-.051-.102-.051-.153-.051l-.051.051c-.051,0-.051.051-.051.102v.051c-.051,0-.102.051-.102.051l-.051-.051s-.102-.051-.153,0l-.051.051c-.051,0-.051.051-.051.102l.051.051c-.051.051-.102.051-.153.102v-.051c-.051-.051-.102-.051-.153,0l-.051.051c-.051,0-.102.051-.051.102l.051.051c-.051.051-.102.051-.153.102v-.051h-.153l-.051.051c-.051.051-.051.102-.051.153l.051.051c-.051,0-.051.051-.102.102l-.051-.051c-.051,0-.102,0-.153.051l-.051.051v.102l.051.051c-.051.051-.051.102-.102.102h-.051c0-.051-.102,0-.102.051l-.051.051c-.051.051-.051.102,0,.102l.051.051c-.051.051-.051.102-.102.153l-.051-.051c-.051,0-.102,0-.102.051l-.051.051c-.051.051,0,.102,0,.153h.051c0,.051-.051.102-.051.153h-.051c-.051-.051-.102,0-.102.051l-.051.051c0,.051,0,.153.051.153h.051c-.051.051-.051.102-.051.153h-.051c-.051,0-.102,0-.153.051v.102c0,.051,0,.102.051.102l.051.051c0,.051-.051.102-.051.153l-.051-.051c-.051,0-.102.051-.102.102v.051c-.051.102,0,.153.051.153h.051c0,.051-.051.102-.051.153h-.051c-.051,0-.051.051-.102.102v.051c0,.051.051.102.102.153h.051v.153h-.051c-.051,0-.102.051-.102.102v.051c0,.051.051.102.102.102h.051v.153l-.051.051c-.051,0-.102.051-.102.102v.051c.051.051.051.102.102.102h.051c0,.051.051.102.051.153h-.051c-.051,0-.102.102-.051.153v.051c0,.051.051.102.102.102h.051c0,.051.051.102.051.153h-.051c-.051,0-.051.051-.051.102v.102c.051.051.102.051.153.051h.051c0,.051,0,.102.051.153h-.051c-.051.051-.051.102-.051.153l.051.051c0,.051.051.102.102.051h.051c0,.051.051.102.051.153h-.051c0,.051-.051.102,0,.153l.051.051c0,.051.051.051.102.051l.051-.051c.051.051.051.102.102.153l-.051.051c-.051,0-.051.051,0,.102l.051.051c0,.051.102.102.102.051h.051c.051,0,.051.051.102.102l-.051.051v.102l.051.051c.051.051.102.051.153.051l.051-.051c.051.051.051.102.102.102l-.051.051c0,.051,0,.102.051.153l.051.051c.051,0,.102.051.153,0v-.051c.051.051.102.051.153.102l-.051.051c-.051.051,0,.102.051.102l.051.051c.051.051.102.051.153,0v-.051c.051.051.102.102.153.102l-.051.051c0,.051,0,.102.051.102l.051.051c.051.051.153.051.153,0l.051-.051s.051.051.102.051v.051c0,.051,0,.102.051.153h.051c.051.051.153,0,.153-.051.051,0,.102,0,.153.051v.051s0,.051.102.102h.051c.051.051.102,0,.102-.051l.051-.051c.051.051.102.051.153.051l-.051.051c0,.051.051.102.102.102l.102.051c.051,0,.102-.051.102-.102v-.051c.051.051.102.051.153.051v.051c0,.051.051.102.102.102h.051c.102,0,.153-.051.153-.102v-.051c.051,0,.102.051.153.051v.051s.051.051.102.051h.051c.102,0,.102-.051.102-.051v-.051c.102,0,.153-.051.204-.051v.051c0,.051.051.102.102.102h.051c.051,0,.102-.051.102-.102v-.051c.051,0,.102,0,.153-.051v.051c.051.051.102.102.153.102l.051-.051c.051,0,.102-.051.102-.102v-.051c.051,0,.102,0,.153-.051v.051c0,.051.051.102.153.051h.051c.051-.051.102-.102.051-.102v-.051c.051-.051.102-.051.153-.051.051.051.102.102.153.051h.051c.051-.051.102-.102.051-.153v-.051c.051,0,.102-.051.153-.051v.051c.051.051.102.051.153,0l.051-.051c.051,0,.102-.051.051-.102v-.051c.051,0,.051-.051.102-.102l.051.051c0,.051.102.051.153,0l.051-.051c.051,0,.051-.051,0-.102v-.051q.051-.051.102-.102l.051.051c0,.051.102,0,.153,0l.051-.051c0-.051.051-.102,0-.153l-.051-.051c.051,0,.102-.051.153-.102v.051c.051,0,.102,0,.153-.051l.051-.051c.051,0,.051-.102,0-.102l-.051-.051c.051-.051.102-.102.102-.102h.051c.051.051.102,0,.153-.051v-.051c.051-.051.051-.102,0-.102v-.051c0-.051.051-.102.051-.153l.051.051c.051,0,.102,0,.153-.051v-.051c.051-.051.051-.102,0-.153h-.051c.051-.051.051-.102.051-.153h.051c.051.051.102,0,.153-.051v-.051c.051-.051,0-.102,0-.153h-.051c0-.051,0-.102.051-.153h.051c.051,0,.102,0,.102-.051v-.102c.051-.051,0-.102-.051-.102v-.153h.051c.051,0,.102-.051.102-.102l.051-.051c0-.051-.051-.153-.102-.153v-.153h.051c.051,0,.102-.051.102-.102v-.051c0-.051-.051-.102-.051-.102l-.051-.051v-.153h.051c.051,0,.051-.051.051-.102v-.051c0-.051,0-.102-.051-.102h-.051v-.153Z" fill="#a7a6a6"/><path d="M329.368,68.941c0-1.476-1.221-2.646-2.646-2.646-1.476,0-2.646,1.17-2.646,2.646,0,1.425,1.17,2.595,2.646,2.595,1.425,0,2.646-1.17,2.646-2.595Z" fill="#ddd" fill-rule="evenodd"/><path d="M328.147,69.908l-.611-.661c-.204-.204-.204-.458,0-.661l.611-.661-.458-.458-.661.661c-.153.153-.458.153-.661,0l-.611-.661-.509.458.661.661c.153.204.153.458,0,.661l-.661.661.509.458.611-.661c.204-.153.509-.153.661,0l.661.661.458-.458Z" fill="#a2a2a1"/><rect x="270.801" y="63.415" width="16.551" height="7.966" fill="#1a1a1a"/><rect x="289.423" y="63.415" width="16.551" height="7.966" fill="#1a1a1a"/><rect x="262.555" y="45.008" width="63.978" height="12.319" fill="#ececec"/><rect x="180.233" y="45.008" width="64.978" height="12.319" fill="#ececec"/><rect x="172.352" y="61.505" width="72.289" height="12.834" fill="#ececec"/><rect x="224.467" y="65.726" width="9.686" height="6.809" fill="#ddd"/><rect x="214.107" y="63.17" width="10.445" height="9.366" fill="#bcbec0"/><rect x="200.766" y="63.17" width="13.335" height="9.366" fill="#ddd"/><path d="M198.551,73.909v-10.198c0-.208-.12-.312-.36-.312h-14.174c-.18,0-.36.104-.36.312v10.198c0,.156.18.312.36.312h14.174c.24,0,.36-.156.36-.312Z" fill="none" stroke="#231f20" stroke-linecap="round" stroke-linejoin="round" stroke-width=".343"/><polyline points="185.338 70.215 185.338 72.556 196.869 72.556 196.869 70.215 196.689 70.215 196.689 68.654 196.869 68.654 196.869 66.364 195.347 66.364 195.347 64.959 193.266 64.959 193.266 64.231 188.941 64.231 188.941 64.959 186.92 64.959 186.92 66.364 185.338 66.364 185.338 68.654 185.578 68.654 185.578 70.215 185.338 70.215" fill="#292929" fill-rule="evenodd"/><path d="M212.77,65.21h-10.674c-.171,0-.285.119-.285.297v4.221c0,.178.114.297.285.297h10.674c.171,0,.285-.119.285-.297v-4.221c0-.178-.114-.297-.285-.297" fill="#333" fill-rule="evenodd"/><path d="M204.779,67.648h-.913s0,.416,0,.416h.913s0-.416,0-.416M207.005,67.648h-.913s0,.416,0,.416h.913s0-.416,0-.416ZM208.774,67.648h-.856s0,.416,0,.416h.856s0-.416,0-.416ZM211.057,67.648h-.913s0,.416,0,.416h.913s0-.416,0-.416Z" fill="#e6a933" fill-rule="evenodd"/><rect x="210.144" y="67.648" width=".913" height=".416" fill="none" stroke="#e0d285" stroke-linecap="round" stroke-linejoin="round"/><rect x="207.918" y="67.648" width=".856" height=".416" fill="none" stroke="#e0d285" stroke-linecap="round" stroke-linejoin="round"/><rect x="206.092" y="67.648" width=".913" height=".416" fill="none" stroke="#e0d285" stroke-linecap="round" stroke-linejoin="round"/><rect x="203.866" y="67.648" width=".913" height=".416" fill="none" stroke="#e0d285" stroke-linecap="round" stroke-linejoin="round"/><path d="M211.914,65.924h-8.904c-.285,0-.571.238-.571.535v1.189s9.989,0,9.989,0v-1.189c0-.297-.228-.535-.514-.535" fill="#2860a7" fill-rule="evenodd"/><path d="M211.914,65.924h-8.904c-.285,0-.571.238-.571.535v1.189s9.989,0,9.989,0v-1.189c0-.297-.228-.535-.514-.535Z" fill="none" stroke="#2860a7" stroke-linecap="round" stroke-linejoin="round"/><path d="M203.066,67.648h1.598s-.228-.297-.228-.297h-1.142s-.228.297-.228.297M204.836,67.648h1.598s-.228-.297-.228-.297h-1.142s-.228.297-.228.297ZM206.662,67.648h1.598s-.228-.297-.228-.297h-1.142s-.228.297-.228.297ZM208.432,67.648h1.598s-.228-.297-.228-.297h-1.142s-.228.297-.228.297ZM210.258,67.648h1.598s-.228-.297-.228-.297h-1.142s-.228.297-.228.297Z" fill="#173760" fill-rule="evenodd"/><polygon points="210.258 67.648 211.856 67.648 211.628 67.35 210.487 67.35 210.258 67.648" fill="none" stroke="#2860a7" stroke-linecap="round" stroke-linejoin="round"/><polygon points="208.432 67.648 210.03 67.648 209.802 67.35 208.66 67.35 208.432 67.648" fill="none" stroke="#2860a7" stroke-linecap="round" stroke-linejoin="round"/><polygon points="206.662 67.648 208.261 67.648 208.032 67.35 206.891 67.35 206.662 67.648" fill="none" stroke="#2860a7" stroke-linecap="round" stroke-linejoin="round"/><polygon points="204.836 67.648 206.434 67.648 206.206 67.35 205.064 67.35 204.836 67.648" fill="none" stroke="#2860a7" stroke-linecap="round" stroke-linejoin="round"/><polygon points="203.066 67.648 204.665 67.648 204.436 67.35 203.295 67.35 203.066 67.648" fill="none" stroke="#2860a7" stroke-linecap="round" stroke-linejoin="round"/><line x1="209.802" y1="67.35" x2="208.66" y2="67.35" fill="none" stroke="#e0d285" stroke-linecap="round" stroke-linejoin="round"/><line x1="208.032" y1="67.35" x2="206.891" y2="67.35" fill="none" stroke="#e0d285" stroke-linecap="round" stroke-linejoin="round"/><line x1="206.206" y1="67.35" x2="205.064" y2="67.35" fill="none" stroke="#e0d285" stroke-linecap="round" stroke-linejoin="round"/><line x1="204.436" y1="67.35" x2="203.295" y2="67.35" fill="none" stroke="#e0d285" stroke-linecap="round" stroke-linejoin="round"/><line x1="211.628" y1="67.35" x2="210.487" y2="67.35" fill="none" stroke="#e0d285" stroke-linecap="round" stroke-linejoin="round"/><rect x="202.895" y="66.28" width="9.075" height=".951" fill="#1971b9"/><rect x="202.895" y="66.28" width="9.075" height=".951" fill="none" stroke="#2860a7" stroke-linecap="round" stroke-linejoin="round"/><path d="M226.208,70.229c-.084-.076-.127-.189-.127-.302v-.686c0-.227.211-.378.422-.378h5.612c.211,0,.422.151.422.378v.686c0,.113-.042.227-.127.302v-.038h-.042v.038h.042l-.886.756c-.084.076-.169.113-.295.113h-3.84c-.084,0-.211-.038-.295-.113l-.844-.756h-.042Z" fill="#292929" fill-rule="evenodd"/><path d="M216.057,69.496c-.089-.079-.134-.198-.134-.316v-2.585c0-.237.223-.395.445-.395h5.921c.223,0,.445.158.445.395v2.585c0,.119-.045.237-.134.316v-.04h-.045v.04h.045l-.935.79c-.089.079-.178.119-.312.119h-4.052c-.089,0-.223-.04-.312-.119l-.89-.79h-.045Z" fill="#292929" fill-rule="evenodd"/><circle cx="178.968" cy="68.517" r="1.268" fill="#6d6e71"/><circle cx="237.76" cy="68.517" r="1.268" fill="#6d6e71"/><path d="M177.778,50.555h.051c0-.051.051-.102.051-.153v-.051c0-.051-.051-.102-.102-.102h-.051v-.153c.051,0,.102-.051.102-.153l-.051-.051c0-.051-.051-.102-.102-.102l-.051.051v-.204c.051,0,.102-.051.051-.102v-.102c0-.051-.051-.051-.102-.051h-.051c-.051-.051-.051-.102-.051-.153h.051s.051-.102,0-.153v-.051c-.051-.051-.102-.102-.153-.051h-.051c0-.051,0-.102-.051-.153h.051c.051-.051.051-.102,0-.153v-.051c-.051-.051-.102-.051-.153-.051l-.051.051c0-.051-.051-.102-.051-.153v-.051c.051,0,.051-.051,0-.102v-.051c-.051-.051-.102-.102-.153-.051h-.051s-.051-.051-.102-.102l.051-.051c.051,0,.051-.051,0-.102l-.051-.051c-.051-.051-.102-.051-.153-.051v.051c-.051-.051-.102-.102-.153-.102l.051-.051c.051-.051,0-.102,0-.153l-.051-.051h-.153l-.051.051q-.051-.051-.102-.102v-.051c.051-.051.051-.102,0-.102l-.051-.051c-.051-.051-.153-.051-.153,0l-.051.051-.102-.102v-.051c.051-.051,0-.102-.051-.102l-.051-.051c-.051-.051-.102,0-.153,0v.051c-.051,0-.102-.051-.153-.051v-.051c.051-.051,0-.102-.051-.102l-.051-.051c-.051,0-.102,0-.153.051v.051c-.051-.051-.102-.051-.153-.102.051-.051,0-.102-.051-.153h-.051c-.102-.051-.153,0-.153.051v.051c-.051-.051-.102-.051-.153-.051v-.051c0-.051-.051-.102-.102-.102h-.051c-.051-.051-.102,0-.153.051v.051c-.051,0-.102-.051-.153-.051v-.051c0-.051-.051-.051-.102-.102h-.051c-.051,0-.102.051-.102.102v.051h-.204v-.051c0-.051,0-.102-.102-.102h-.051c-.051,0-.102.051-.102.102v.051h-.153v-.051c0-.051-.051-.102-.153-.102h-.051c-.051.051-.102.051-.102.102v.051c-.051,0-.102.051-.153.051v-.051c0-.051-.051-.102-.102-.051h-.102c-.051,0-.102.051-.102.102l.051.051c-.051,0-.102,0-.153.051l-.051-.051c0-.051-.051-.102-.102-.051h-.051c-.102.051-.102.102-.102.153-.051.051-.102.051-.153.102v-.051c0-.051-.102-.051-.153-.051l-.051.051c-.051,0-.051.051-.051.102v.051c-.051,0-.102.051-.102.051l-.051-.051s-.102-.051-.153,0l-.051.051c-.051,0-.051.051-.051.102l.051.051c-.051.051-.102.051-.153.102v-.051c-.051-.051-.102-.051-.153,0l-.051.051c-.051,0-.102.051-.051.102l.051.051c-.051.051-.102.051-.153.102v-.051h-.153l-.051.051c-.051.051-.051.102-.051.153l.051.051c-.051,0-.051.051-.102.102l-.051-.051c-.051,0-.102,0-.153.051l-.051.051v.102l.051.051c-.051.051-.051.102-.102.102h-.051c0-.051-.102,0-.102.051l-.051.051c-.051.051-.051.102,0,.102l.051.051c-.051.051-.051.102-.102.153l-.051-.051c-.051,0-.102,0-.102.051l-.051.051c-.051.051,0,.102,0,.153h.051c0,.051-.051.102-.051.153h-.051c-.051-.051-.102,0-.102.051l-.051.051c0,.051,0,.153.051.153h.051c-.051.051-.051.102-.051.153h-.051c-.051,0-.102,0-.153.051v.102c0,.051,0,.102.051.102l.051.051c0,.051-.051.102-.051.153l-.051-.051c-.051,0-.102.051-.102.102v.051c-.051.102,0,.153.051.153h.051c0,.051-.051.102-.051.153h-.051c-.051,0-.051.051-.102.102v.051c0,.051.051.102.102.153h.051v.153h-.051c-.051,0-.102.051-.102.102v.051c0,.051.051.102.102.102h.051v.153l-.051.051c-.051,0-.102.051-.102.102v.051c.051.051.051.102.102.102h.051c0,.051.051.102.051.153h-.051c-.051,0-.102.102-.051.153v.051c0,.051.051.102.102.102h.051c0,.051.051.102.051.153h-.051c-.051,0-.051.051-.051.102v.102c.051.051.102.051.153.051h.051c0,.051,0,.102.051.153h-.051c-.051.051-.051.102-.051.153l.051.051c0,.051.051.102.102.051h.051c0,.051.051.102.051.153h-.051c0,.051-.051.102,0,.153l.051.051c0,.051.051.051.102.051l.051-.051c.051.051.051.102.102.153l-.051.051c-.051,0-.051.051,0,.102l.051.051c0,.051.102.102.102.051h.051c.051,0,.051.051.102.102l-.051.051v.102l.051.051c.051.051.102.051.153.051l.051-.051c.051.051.051.102.102.102l-.051.051c0,.051,0,.102.051.153l.051.051c.051,0,.102.051.153,0v-.051c.051.051.102.051.153.102l-.051.051c-.051.051,0,.102.051.102l.051.051c.051.051.102.051.153,0v-.051c.051.051.102.102.153.102l-.051.051c0,.051,0,.102.051.102l.051.051c.051.051.153.051.153,0l.051-.051s.051.051.102.051v.051c0,.051,0,.102.051.153h.051c.051.051.153,0,.153-.051.051,0,.102,0,.153.051v.051s0,.051.102.102h.051c.051.051.102,0,.102-.051l.051-.051c.051.051.102.051.153.051l-.051.051c0,.051.051.102.102.102l.102.051c.051,0,.102-.051.102-.102v-.051c.051.051.102.051.153.051v.051c0,.051.051.102.102.102h.051c.102,0,.153-.051.153-.102v-.051c.051,0,.102.051.153.051v.051s.051.051.102.051h.051c.102,0,.102-.051.102-.051v-.051c.102,0,.153-.051.204-.051v.051c0,.051.051.102.102.102h.051c.051,0,.102-.051.102-.102v-.051c.051,0,.102,0,.153-.051v.051c.051.051.102.102.153.102l.051-.051c.051,0,.102-.051.102-.102v-.051c.051,0,.102,0,.153-.051v.051c0,.051.051.102.153.051h.051c.051-.051.102-.102.051-.102v-.051c.051-.051.102-.051.153-.051.051.051.102.102.153.051h.051c.051-.051.102-.102.051-.153v-.051c.051,0,.102-.051.153-.051v.051c.051.051.102.051.153,0l.051-.051c.051,0,.102-.051.051-.102v-.051c.051,0,.051-.051.102-.102l.051.051c0,.051.102.051.153,0l.051-.051c.051,0,.051-.051,0-.102v-.051q.051-.051.102-.102l.051.051c0,.051.102,0,.153,0l.051-.051c0-.051.051-.102,0-.153l-.051-.051c.051,0,.102-.051.153-.102v.051c.051,0,.102,0,.153-.051l.051-.051c.051,0,.051-.102,0-.102l-.051-.051c.051-.051.102-.102.102-.102h.051c.051.051.102,0,.153-.051v-.051c.051-.051.051-.102,0-.102v-.051c0-.051.051-.102.051-.153l.051.051c.051,0,.102,0,.153-.051v-.051c.051-.051.051-.102,0-.153h-.051c.051-.051.051-.102.051-.153h.051c.051.051.102,0,.153-.051v-.051c.051-.051,0-.102,0-.153h-.051c0-.051,0-.102.051-.153h.051c.051,0,.102,0,.102-.051v-.102c.051-.051,0-.102-.051-.102v-.153h.051c.051,0,.102-.051.102-.102l.051-.051c0-.051-.051-.153-.102-.153v-.153h.051c.051,0,.102-.051.102-.102v-.051c0-.051-.051-.102-.051-.102l-.051-.051v-.153h.051c.051,0,.051-.051.051-.102v-.051c0-.051,0-.102-.051-.102h-.051v-.153Z" fill="#a7a6a6"/><path d="M176.201,50.86c0-1.476-1.221-2.646-2.646-2.646-1.476,0-2.646,1.17-2.646,2.646,0,1.425,1.17,2.595,2.646,2.595,1.425,0,2.646-1.17,2.646-2.595Z" fill="#ddd" fill-rule="evenodd"/><path d="M174.98,51.827l-.611-.661c-.204-.204-.204-.458,0-.661l.611-.661-.458-.458-.661.661c-.153.153-.458.153-.661,0l-.611-.661-.509.458.661.661c.153.204.153.458,0,.661l-.661.661.509.458.611-.661c.204-.153.509-.153.661,0l.661.661.458-.458Z" fill="#a2a2a1"/><path d="M260.308,46.111h.051c0-.051.051-.102.051-.153v-.051c0-.051-.051-.102-.102-.102h-.051v-.153c.051,0,.102-.051.102-.153l-.051-.051c0-.051-.051-.102-.102-.102l-.051.051v-.204c.051,0,.102-.051.051-.102v-.102c0-.051-.051-.051-.102-.051h-.051c-.051-.051-.051-.102-.051-.153h.051s.051-.102,0-.153v-.051c-.051-.051-.102-.102-.153-.051h-.051c0-.051,0-.102-.051-.153h.051c.051-.051.051-.102,0-.153v-.051c-.051-.051-.102-.051-.153-.051l-.051.051c0-.051-.051-.102-.051-.153v-.051c.051,0,.051-.051,0-.102v-.051c-.051-.051-.102-.102-.153-.051h-.051s-.051-.051-.102-.102l.051-.051c.051,0,.051-.051,0-.102l-.051-.051c-.051-.051-.102-.051-.153-.051v.051c-.051-.051-.102-.102-.153-.102l.051-.051c.051-.051,0-.102,0-.153l-.051-.051h-.153l-.051.051q-.051-.051-.102-.102v-.051c.051-.051.051-.102,0-.102l-.051-.051c-.051-.051-.153-.051-.153,0l-.051.051-.102-.102v-.051c.051-.051,0-.102-.051-.102l-.051-.051c-.051-.051-.102,0-.153,0v.051c-.051,0-.102-.051-.153-.051v-.051c.051-.051,0-.102-.051-.102l-.051-.051c-.051,0-.102,0-.153.051v.051c-.051-.051-.102-.051-.153-.102.051-.051,0-.102-.051-.153h-.051c-.102-.051-.153,0-.153.051v.051c-.051-.051-.102-.051-.153-.051v-.051c0-.051-.051-.102-.102-.102h-.051c-.051-.051-.102,0-.153.051v.051c-.051,0-.102-.051-.153-.051v-.051c0-.051-.051-.051-.102-.102h-.051c-.051,0-.102.051-.102.102v.051h-.204v-.051c0-.051,0-.102-.102-.102h-.051c-.051,0-.102.051-.102.102v.051h-.153v-.051c0-.051-.051-.102-.153-.102h-.051c-.051.051-.102.051-.102.102v.051c-.051,0-.102.051-.153.051v-.051c0-.051-.051-.102-.102-.051h-.102c-.051,0-.102.051-.102.102l.051.051c-.051,0-.102,0-.153.051l-.051-.051c0-.051-.051-.102-.102-.051h-.051c-.102.051-.102.102-.102.153-.051.051-.102.051-.153.102v-.051c0-.051-.102-.051-.153-.051l-.051.051c-.051,0-.051.051-.051.102v.051c-.051,0-.102.051-.102.051l-.051-.051s-.102-.051-.153,0l-.051.051c-.051,0-.051.051-.051.102l.051.051c-.051.051-.102.051-.153.102v-.051c-.051-.051-.102-.051-.153,0l-.051.051c-.051,0-.102.051-.051.102l.051.051c-.051.051-.102.051-.153.102v-.051h-.153l-.051.051c-.051.051-.051.102-.051.153l.051.051c-.051,0-.051.051-.102.102l-.051-.051c-.051,0-.102,0-.153.051l-.051.051v.102l.051.051c-.051.051-.051.102-.102.102h-.051c0-.051-.102,0-.102.051l-.051.051c-.051.051-.051.102,0,.102l.051.051c-.051.051-.051.102-.102.153l-.051-.051c-.051,0-.102,0-.102.051l-.051.051c-.051.051,0,.102,0,.153h.051c0,.051-.051.102-.051.153h-.051c-.051-.051-.102,0-.102.051l-.051.051c0,.051,0,.153.051.153h.051c-.051.051-.051.102-.051.153h-.051c-.051,0-.102,0-.153.051v.102c0,.051,0,.102.051.102l.051.051c0,.051-.051.102-.051.153l-.051-.051c-.051,0-.102.051-.102.102v.051c-.051.102,0,.153.051.153h.051c0,.051-.051.102-.051.153h-.051c-.051,0-.051.051-.102.102v.051c0,.051.051.102.102.153h.051v.153h-.051c-.051,0-.102.051-.102.102v.051c0,.051.051.102.102.102h.051v.153l-.051.051c-.051,0-.102.051-.102.102v.051c.051.051.051.102.102.102h.051c0,.051.051.102.051.153h-.051c-.051,0-.102.102-.051.153v.051c0,.051.051.102.102.102h.051c0,.051.051.102.051.153h-.051c-.051,0-.051.051-.051.102v.102c.051.051.102.051.153.051h.051c0,.051,0,.102.051.153h-.051c-.051.051-.051.102-.051.153l.051.051c0,.051.051.102.102.051h.051c0,.051.051.102.051.153h-.051c0,.051-.051.102,0,.153l.051.051c0,.051.051.051.102.051l.051-.051c.051.051.051.102.102.153l-.051.051c-.051,0-.051.051,0,.102l.051.051c0,.051.102.102.102.051h.051c.051,0,.051.051.102.102l-.051.051v.102l.051.051c.051.051.102.051.153.051l.051-.051c.051.051.051.102.102.102l-.051.051c0,.051,0,.102.051.153l.051.051c.051,0,.102.051.153,0v-.051c.051.051.102.051.153.102l-.051.051c-.051.051,0,.102.051.102l.051.051c.051.051.102.051.153,0v-.051c.051.051.102.102.153.102l-.051.051c0,.051,0,.102.051.102l.051.051c.051.051.153.051.153,0l.051-.051s.051.051.102.051v.051c0,.051,0,.102.051.153h.051c.051.051.153,0,.153-.051.051,0,.102,0,.153.051v.051s0,.051.102.102h.051c.051.051.102,0,.102-.051l.051-.051c.051.051.102.051.153.051l-.051.051c0,.051.051.102.102.102l.102.051c.051,0,.102-.051.102-.102v-.051c.051.051.102.051.153.051v.051c0,.051.051.102.102.102h.051c.102,0,.153-.051.153-.102v-.051c.051,0,.102.051.153.051v.051s.051.051.102.051h.051c.102,0,.102-.051.102-.051v-.051c.102,0,.153-.051.204-.051v.051c0,.051.051.102.102.102h.051c.051,0,.102-.051.102-.102v-.051c.051,0,.102,0,.153-.051v.051c.051.051.102.102.153.102l.051-.051c.051,0,.102-.051.102-.102v-.051c.051,0,.102,0,.153-.051v.051c0,.051.051.102.153.051h.051c.051-.051.102-.102.051-.102v-.051c.051-.051.102-.051.153-.051.051.051.102.102.153.051h.051c.051-.051.102-.102.051-.153v-.051c.051,0,.102-.051.153-.051v.051c.051.051.102.051.153,0l.051-.051c.051,0,.102-.051.051-.102v-.051c.051,0,.051-.051.102-.102l.051.051c0,.051.102.051.153,0l.051-.051c.051,0,.051-.051,0-.102v-.051q.051-.051.102-.102l.051.051c0,.051.102,0,.153,0l.051-.051c0-.051.051-.102,0-.153l-.051-.051c.051,0,.102-.051.153-.102v.051c.051,0,.102,0,.153-.051l.051-.051c.051,0,.051-.102,0-.102l-.051-.051c.051-.051.102-.102.102-.102h.051c.051.051.102,0,.153-.051v-.051c.051-.051.051-.102,0-.102v-.051c0-.051.051-.102.051-.153l.051.051c.051,0,.102,0,.153-.051v-.051c.051-.051.051-.102,0-.153h-.051c.051-.051.051-.102.051-.153h.051c.051.051.102,0,.153-.051v-.051c.051-.051,0-.102,0-.153h-.051c0-.051,0-.102.051-.153h.051c.051,0,.102,0,.102-.051v-.102c.051-.051,0-.102-.051-.102v-.153h.051c.051,0,.102-.051.102-.102l.051-.051c0-.051-.051-.153-.102-.153v-.153h.051c.051,0,.102-.051.102-.102v-.051c0-.051-.051-.102-.051-.102l-.051-.051v-.153h.051c.051,0,.051-.051.051-.102v-.051c0-.051,0-.102-.051-.102h-.051v-.153Z" fill="#a7a6a6"/><path d="M258.731,46.417c0-1.476-1.221-2.646-2.646-2.646-1.476,0-2.646,1.17-2.646,2.646,0,1.425,1.17,2.595,2.646,2.595,1.425,0,2.646-1.17,2.646-2.595Z" fill="#ddd" fill-rule="evenodd"/><path d="M257.51,47.383l-.611-.661c-.204-.204-.204-.458,0-.661l.611-.661-.458-.458-.661.661c-.153.153-.458.153-.661,0l-.611-.661-.509.458.661.661c.153.204.153.458,0,.661l-.661.661.509.458.611-.661c.204-.153.509-.153.661,0l.661.661.458-.458Z" fill="#a2a2a1"/><path d="M93.655,46.497h.051c0-.051.051-.102.051-.153v-.051c0-.051-.051-.102-.102-.102h-.051v-.153c.051,0,.102-.051.102-.153l-.051-.051c0-.051-.051-.102-.102-.102l-.051.051v-.204c.051,0,.102-.051.051-.102v-.102c0-.051-.051-.051-.102-.051h-.051c-.051-.051-.051-.102-.051-.153h.051s.051-.102,0-.153v-.051c-.051-.051-.102-.102-.153-.051h-.051c0-.051,0-.102-.051-.153h.051c.051-.051.051-.102,0-.153v-.051c-.051-.051-.102-.051-.153-.051l-.051.051c0-.051-.051-.102-.051-.153v-.051c.051,0,.051-.051,0-.102v-.051c-.051-.051-.102-.102-.153-.051h-.051s-.051-.051-.102-.102l.051-.051c.051,0,.051-.051,0-.102l-.051-.051c-.051-.051-.102-.051-.153-.051v.051c-.051-.051-.102-.102-.153-.102l.051-.051c.051-.051,0-.102,0-.153l-.051-.051h-.153l-.051.051q-.051-.051-.102-.102v-.051c.051-.051.051-.102,0-.102l-.051-.051c-.051-.051-.153-.051-.153,0l-.051.051-.102-.102v-.051c.051-.051,0-.102-.051-.102l-.051-.051c-.051-.051-.102,0-.153,0v.051c-.051,0-.102-.051-.153-.051v-.051c.051-.051,0-.102-.051-.102l-.051-.051c-.051,0-.102,0-.153.051v.051c-.051-.051-.102-.051-.153-.102.051-.051,0-.102-.051-.153h-.051c-.102-.051-.153,0-.153.051v.051c-.051-.051-.102-.051-.153-.051v-.051c0-.051-.051-.102-.102-.102h-.051c-.051-.051-.102,0-.153.051v.051c-.051,0-.102-.051-.153-.051v-.051c0-.051-.051-.051-.102-.102h-.051c-.051,0-.102.051-.102.102v.051h-.204v-.051c0-.051,0-.102-.102-.102h-.051c-.051,0-.102.051-.102.102v.051h-.153v-.051c0-.051-.051-.102-.153-.102h-.051c-.051.051-.102.051-.102.102v.051c-.051,0-.102.051-.153.051v-.051c0-.051-.051-.102-.102-.051h-.102c-.051,0-.102.051-.102.102l.051.051c-.051,0-.102,0-.153.051l-.051-.051c0-.051-.051-.102-.102-.051h-.051c-.102.051-.102.102-.102.153-.051.051-.102.051-.153.102v-.051c0-.051-.102-.051-.153-.051l-.051.051c-.051,0-.051.051-.051.102v.051c-.051,0-.102.051-.102.051l-.051-.051s-.102-.051-.153,0l-.051.051c-.051,0-.051.051-.051.102l.051.051c-.051.051-.102.051-.153.102v-.051c-.051-.051-.102-.051-.153,0l-.051.051c-.051,0-.102.051-.051.102l.051.051c-.051.051-.102.051-.153.102v-.051h-.153l-.051.051c-.051.051-.051.102-.051.153l.051.051c-.051,0-.051.051-.102.102l-.051-.051c-.051,0-.102,0-.153.051l-.051.051v.102l.051.051c-.051.051-.051.102-.102.102h-.051c0-.051-.102,0-.102.051l-.051.051c-.051.051-.051.102,0,.102l.051.051c-.051.051-.051.102-.102.153l-.051-.051c-.051,0-.102,0-.102.051l-.051.051c-.051.051,0,.102,0,.153h.051c0,.051-.051.102-.051.153h-.051c-.051-.051-.102,0-.102.051l-.051.051c0,.051,0,.153.051.153h.051c-.051.051-.051.102-.051.153h-.051c-.051,0-.102,0-.153.051v.102c0,.051,0,.102.051.102l.051.051c0,.051-.051.102-.051.153l-.051-.051c-.051,0-.102.051-.102.102v.051c-.051.102,0,.153.051.153h.051c0,.051-.051.102-.051.153h-.051c-.051,0-.051.051-.102.102v.051c0,.051.051.102.102.153h.051v.153h-.051c-.051,0-.102.051-.102.102v.051c0,.051.051.102.102.102h.051v.153l-.051.051c-.051,0-.102.051-.102.102v.051c.051.051.051.102.102.102h.051c0,.051.051.102.051.153h-.051c-.051,0-.102.102-.051.153v.051c0,.051.051.102.102.102h.051c0,.051.051.102.051.153h-.051c-.051,0-.051.051-.051.102v.102c.051.051.102.051.153.051h.051c0,.051,0,.102.051.153h-.051c-.051.051-.051.102-.051.153l.051.051c0,.051.051.102.102.051h.051c0,.051.051.102.051.153h-.051c0,.051-.051.102,0,.153l.051.051c0,.051.051.051.102.051l.051-.051c.051.051.051.102.102.153l-.051.051c-.051,0-.051.051,0,.102l.051.051c0,.051.102.102.102.051h.051c.051,0,.051.051.102.102l-.051.051v.102l.051.051c.051.051.102.051.153.051l.051-.051c.051.051.051.102.102.102l-.051.051c0,.051,0,.102.051.153l.051.051c.051,0,.102.051.153,0v-.051c.051.051.102.051.153.102l-.051.051c-.051.051,0,.102.051.102l.051.051c.051.051.102.051.153,0v-.051c.051.051.102.102.153.102l-.051.051c0,.051,0,.102.051.102l.051.051c.051.051.153.051.153,0l.051-.051s.051.051.102.051v.051c0,.051,0,.102.051.153h.051c.051.051.153,0,.153-.051.051,0,.102,0,.153.051v.051s0,.051.102.102h.051c.051.051.102,0,.102-.051l.051-.051c.051.051.102.051.153.051l-.051.051c0,.051.051.102.102.102l.102.051c.051,0,.102-.051.102-.102v-.051c.051.051.102.051.153.051v.051c0,.051.051.102.102.102h.051c.102,0,.153-.051.153-.102v-.051c.051,0,.102.051.153.051v.051s.051.051.102.051h.051c.102,0,.102-.051.102-.051v-.051c.102,0,.153-.051.204-.051v.051c0,.051.051.102.102.102h.051c.051,0,.102-.051.102-.102v-.051c.051,0,.102,0,.153-.051v.051c.051.051.102.102.153.102l.051-.051c.051,0,.102-.051.102-.102v-.051c.051,0,.102,0,.153-.051v.051c0,.051.051.102.153.051h.051c.051-.051.102-.102.051-.102v-.051c.051-.051.102-.051.153-.051.051.051.102.102.153.051h.051c.051-.051.102-.102.051-.153v-.051c.051,0,.102-.051.153-.051v.051c.051.051.102.051.153,0l.051-.051c.051,0,.102-.051.051-.102v-.051c.051,0,.051-.051.102-.102l.051.051c0,.051.102.051.153,0l.051-.051c.051,0,.051-.051,0-.102v-.051q.051-.051.102-.102l.051.051c0,.051.102,0,.153,0l.051-.051c0-.051.051-.102,0-.153l-.051-.051c.051,0,.102-.051.153-.102v.051c.051,0,.102,0,.153-.051l.051-.051c.051,0,.051-.102,0-.102l-.051-.051c.051-.051.102-.102.102-.102h.051c.051.051.102,0,.153-.051v-.051c.051-.051.051-.102,0-.102v-.051c0-.051.051-.102.051-.153l.051.051c.051,0,.102,0,.153-.051v-.051c.051-.051.051-.102,0-.153h-.051c.051-.051.051-.102.051-.153h.051c.051.051.102,0,.153-.051v-.051c.051-.051,0-.102,0-.153h-.051c0-.051,0-.102.051-.153h.051c.051,0,.102,0,.102-.051v-.102c.051-.051,0-.102-.051-.102v-.153h.051c.051,0,.102-.051.102-.102l.051-.051c0-.051-.051-.153-.102-.153v-.153h.051c.051,0,.102-.051.102-.102v-.051c0-.051-.051-.102-.051-.102l-.051-.051v-.153h.051c.051,0,.051-.051.051-.102v-.051c0-.051,0-.102-.051-.102h-.051v-.153Z" fill="#a7a6a6"/><path d="M92.078,46.803c0-1.476-1.221-2.646-2.646-2.646-1.476,0-2.646,1.17-2.646,2.646,0,1.425,1.17,2.595,2.646,2.595,1.425,0,2.646-1.17,2.646-2.595Z" fill="#ddd" fill-rule="evenodd"/><path d="M90.856,47.769l-.611-.661c-.204-.204-.204-.458,0-.661l.611-.661-.458-.458-.661.661c-.153.153-.458.153-.661,0l-.611-.661-.509.458.661.661c.153.204.153.458,0,.661l-.661.661.509.458.611-.661c.204-.153.509-.153.661,0l.661.661.458-.458Z" fill="#a2a2a1"/><path d="M305.427,56.685c.714,0,1.298-.584,1.298-1.298v-3.721s.137-.931-.9-1.562c-1.556-.946-1.388-2.739-1.388-2.739,0-.714-.584-1.298-1.298-1.298h-32.924c-.714,0-1.298.584-1.298,1.298,0,0,.168,1.792-1.388,2.739-1.037.631-.9,1.562-.9,1.562v3.721c0,.714.584,1.298,1.298,1.298h37.499Z" fill="none" stroke="#676767" stroke-miterlimit="10" stroke-width=".5"/><path d="M305.427,56.685c.714,0,1.298-.584,1.298-1.298v-3.721s.137-.931-.9-1.562c-1.556-.946-1.388-2.739-1.388-2.739,0-.714-.584-1.298-1.298-1.298h-32.924c-.714,0-1.298.584-1.298,1.298,0,0,.168,1.792-1.388,2.739-1.037.631-.9,1.562-.9,1.562v3.721c0,.714.584,1.298,1.298,1.298h37.499Z" fill="#1a1a1a"/><g clip-path="url(#b)"><line x1="304.603" y1="46.199" x2="304.603" y2="56.628" fill="none" stroke="#676767" stroke-miterlimit="10" stroke-width=".5"/><line x1="302.495" y1="46.199" x2="302.495" y2="56.628" fill="none" stroke="#676767" stroke-miterlimit="10" stroke-width=".5"/><line x1="300.386" y1="46.199" x2="300.386" y2="56.628" fill="none" stroke="#676767" stroke-miterlimit="10" stroke-width=".5"/><line x1="298.277" y1="46.199" x2="298.277" y2="56.628" fill="none" stroke="#676767" stroke-miterlimit="10" stroke-width=".5"/><line x1="296.168" y1="46.199" x2="296.168" y2="56.628" fill="none" stroke="#676767" stroke-miterlimit="10" stroke-width=".5"/><line x1="294.059" y1="46.199" x2="294.059" y2="56.628" fill="none" stroke="#676767" stroke-miterlimit="10" stroke-width=".5"/><line x1="291.95" y1="46.199" x2="291.95" y2="56.628" fill="none" stroke="#676767" stroke-miterlimit="10" stroke-width=".5"/><line x1="289.841" y1="46.199" x2="289.841" y2="56.628" fill="none" stroke="#676767" stroke-miterlimit="10" stroke-width=".5"/><line x1="287.732" y1="46.199" x2="287.732" y2="56.628" fill="none" stroke="#676767" stroke-miterlimit="10" stroke-width=".5"/><line x1="285.623" y1="46.199" x2="285.623" y2="56.628" fill="none" stroke="#676767" stroke-miterlimit="10" stroke-width=".5"/><line x1="283.514" y1="46.199" x2="283.514" y2="56.628" fill="none" stroke="#676767" stroke-miterlimit="10" stroke-width=".5"/><line x1="281.405" y1="46.199" x2="281.405" y2="56.628" fill="none" stroke="#676767" stroke-miterlimit="10" stroke-width=".5"/><line x1="279.296" y1="46.199" x2="279.296" y2="56.628" fill="none" stroke="#676767" stroke-miterlimit="10" stroke-width=".5"/><line x1="277.187" y1="46.199" x2="277.187" y2="56.628" fill="none" stroke="#676767" stroke-miterlimit="10" stroke-width=".5"/><line x1="275.079" y1="46.199" x2="275.079" y2="56.628" fill="none" stroke="#676767" stroke-miterlimit="10" stroke-width=".5"/><line x1="272.97" y1="46.199" x2="272.97" y2="56.628" fill="none" stroke="#676767" stroke-miterlimit="10" stroke-width=".5"/><line x1="270.861" y1="46.199" x2="270.861" y2="56.628" fill="none" stroke="#676767" stroke-miterlimit="10" stroke-width=".5"/><line x1="268.752" y1="46.199" x2="268.752" y2="56.628" fill="none" stroke="#676767" stroke-miterlimit="10" stroke-width=".5"/></g><circle cx="307.43" cy="47.652" r="1.924" fill="#a7a6a6"/><polygon points="307.03 46.45 307.605 46.799 308.27 46.705 308.256 47.377 308.669 47.907 308.08 48.23 307.829 48.853 307.254 48.504 306.589 48.598 306.603 47.926 306.19 47.397 306.779 47.074 307.03 46.45" fill="none" stroke="#ececec" stroke-linecap="round" stroke-linejoin="round" stroke-width=".375"/><circle cx="265.926" cy="47.652" r="1.924" fill="#a7a6a6"/><polygon points="265.527 46.45 266.101 46.799 266.766 46.705 266.752 47.377 267.165 47.907 266.576 48.23 266.325 48.853 265.75 48.504 265.085 48.598 265.1 47.926 264.686 47.397 265.275 47.074 265.527 46.45" fill="none" stroke="#ececec" stroke-linecap="round" stroke-linejoin="round" stroke-width=".375"/></g><g id="c"><path d="M121.482,15.996c0,7.593-6.246,13.745-13.95,13.745s-13.953-6.152-13.953-13.745,6.246-13.755,13.953-13.755,13.95,6.159,13.95,13.755" fill="#221f1f" stroke="#fff" stroke-miterlimit="10" stroke-width="1.5"/><rect x="93.531" y="8.002" width="27.228" height="24.791" fill="none"/><path d="M109.13,23.038h-1.846v-11.761c-.444.424-1.027.848-1.749,1.271-.721.424-1.368.742-1.942.954v-1.784c1.032-.485,1.935-1.073,2.707-1.764s1.319-1.36,1.641-2.01h1.189v15.094Z" fill="#fff"/><path d="M116.417,104.217c0,7.593-6.246,13.745-13.95,13.745s-13.953-6.152-13.953-13.745,6.246-13.755,13.953-13.755,13.95,6.159,13.95,13.755" fill="#221f1f" stroke="#fff" stroke-miterlimit="10" stroke-width="1.5"/><rect x="88.465" y="96.223" width="27.228" height="24.791" fill="none"/><path d="M103.028,111.259v-3.6h-6.521v-1.691l6.859-9.741h1.508v9.741h2.03v1.691h-2.03v3.6h-1.846ZM103.028,105.968v-6.778l-4.707,6.778h4.707Z" fill="#fff"/><line x1="107.507" y1="31.884" x2="107.507" y2="47.358" fill="none" stroke="#fff" stroke-linecap="round" stroke-linejoin="round" stroke-width="3"/><line x1="107.507" y1="31.884" x2="107.507" y2="47.358" fill="none" stroke="#231f20" stroke-linecap="round" stroke-linejoin="round"/><line x1="102.441" y1="73.255" x2="102.441" y2="88.729" fill="none" stroke="#fff" stroke-linecap="round" stroke-linejoin="round" stroke-width="3"/><line x1="102.441" y1="73.255" x2="102.441" y2="88.729" fill="none" stroke="#231f20" stroke-linecap="round" stroke-linejoin="round"/><path d="M275.755,104.217c0,7.593-6.246,13.745-13.95,13.745s-13.953-6.152-13.953-13.745,6.246-13.755,13.953-13.755,13.95,6.159,13.95,13.755" fill="#221f1f" stroke="#fff" stroke-miterlimit="10" stroke-width="1.5"/><rect x="247.804" y="96.223" width="27.228" height="24.791" fill="none"/><path d="M256.45,107.321l1.938-.164c.144.943.477,1.652,1,2.128.522.475,1.153.712,1.892.712.889,0,1.641-.335,2.256-1.005s.923-1.559.923-2.666c0-1.053-.296-1.883-.887-2.491-.592-.608-1.365-.913-2.322-.913-.595,0-1.132.136-1.61.405-.479.271-.854.62-1.128,1.051l-1.732-.226,1.456-7.721h7.475v1.764h-5.998l-.811,4.04c.902-.629,1.85-.943,2.841-.943,1.312,0,2.42.454,3.322,1.363s1.354,2.078,1.354,3.507c0,1.36-.396,2.536-1.189,3.527-.964,1.217-2.28,1.825-3.948,1.825-1.367,0-2.483-.383-3.348-1.148-.865-.766-1.358-1.78-1.481-3.045Z" fill="#fff"/><line x1="261.779" y1="73.255" x2="261.779" y2="88.729" fill="none" stroke="#fff" stroke-linecap="round" stroke-linejoin="round" stroke-width="3"/><line x1="261.779" y1="73.255" x2="261.779" y2="88.729" fill="none" stroke="#231f20" stroke-linecap="round" stroke-linejoin="round"/><path d="M205.784,15.996c0,7.593-6.246,13.745-13.95,13.745s-13.953-6.152-13.953-13.745,6.246-13.755,13.953-13.755,13.95,6.159,13.95,13.755" fill="#221f1f" stroke="#fff" stroke-miterlimit="10" stroke-width="1.5"/><rect x="177.832" y="8.002" width="27.228" height="24.791" fill="none"/><path d="M196.179,21.264v1.774h-9.937c-.014-.444.059-.872.216-1.282.253-.677.657-1.343,1.215-2,.557-.656,1.362-1.415,2.415-2.276,1.634-1.34,2.737-2.401,3.312-3.184s.861-1.523.861-2.22c0-.731-.262-1.348-.784-1.851-.523-.502-1.205-.753-2.046-.753-.889,0-1.6.267-2.133.8s-.803,1.271-.81,2.215l-1.897-.195c.13-1.415.619-2.493,1.467-3.235.848-.741,1.985-1.112,3.414-1.112,1.442,0,2.584.4,3.425,1.2s1.262,1.791,1.262,2.974c0,.602-.123,1.193-.369,1.774s-.655,1.193-1.226,1.835c-.571.643-1.52,1.524-2.846,2.646-1.107.93-1.818,1.561-2.133,1.892s-.574.665-.779,1h7.373Z" fill="#fff"/><line x1="191.808" y1="31.884" x2="191.808" y2="47.358" fill="none" stroke="#fff" stroke-linecap="round" stroke-linejoin="round" stroke-width="3"/><line x1="191.808" y1="31.884" x2="191.808" y2="47.358" fill="none" stroke="#231f20" stroke-linecap="round" stroke-linejoin="round"/><path d="M332.205,15.996c0,7.593-6.246,13.745-13.95,13.745s-13.953-6.152-13.953-13.745,6.246-13.755,13.953-13.755,13.95,6.159,13.95,13.755" fill="#221f1f" stroke="#fff" stroke-miterlimit="10" stroke-width="1.5"/><rect x="304.254" y="8.002" width="27.228" height="24.791" fill="none"/><path d="M312.91,19.069l1.846-.246c.212,1.046.572,1.799,1.082,2.261.509.461,1.13.692,1.86.692.869,0,1.602-.301,2.2-.902.598-.602.897-1.347.897-2.235,0-.848-.277-1.546-.831-2.097-.554-.55-1.258-.825-2.112-.825-.349,0-.783.068-1.303.205l.205-1.62c.123.014.223.021.298.021.786,0,1.493-.205,2.122-.615s.943-1.042.943-1.897c0-.677-.229-1.237-.687-1.682s-1.05-.667-1.774-.667c-.717,0-1.315.226-1.794.677s-.786,1.128-.923,2.03l-1.846-.328c.226-1.237.738-2.196,1.538-2.876s1.794-1.021,2.983-1.021c.82,0,1.576.176,2.267.528s1.218.832,1.584,1.44.549,1.254.549,1.938c0,.649-.175,1.241-.522,1.774-.35.533-.865.957-1.549,1.271.889.205,1.579.631,2.071,1.276.492.646.738,1.455.738,2.425,0,1.312-.479,2.425-1.436,3.337-.957.913-2.167,1.369-3.63,1.369-1.319,0-2.415-.393-3.286-1.179-.872-.786-1.369-1.805-1.492-3.056Z" fill="#fff"/><line x1="318.229" y1="31.884" x2="318.229" y2="47.358" fill="none" stroke="#fff" stroke-linecap="round" stroke-linejoin="round" stroke-width="3"/><line x1="318.229" y1="31.884" x2="318.229" y2="47.358" fill="none" stroke="#231f20" stroke-linecap="round" stroke-linejoin="round"/></g></svg>